<svg width="32" height="32" viewBox="0 0 32 32" fill="none" xmlns="http://www.w3.org/2000/svg">
<path d="M19.1665 25.5002C19.5865 25.5002 19.9892 25.3333 20.2861 25.0364C20.5831 24.7395 20.7499 24.3367 20.7499 23.9168V20.7502C20.7499 20.3302 20.5831 19.9275 20.2861 19.6306C19.9892 19.3336 19.5865 19.1668 19.1665 19.1668C18.7466 19.1668 18.3439 19.3336 18.047 19.6306C17.75 19.9275 17.5832 20.3302 17.5832 20.7502V23.9168C17.5832 24.3367 17.75 24.7395 18.047 25.0364C18.3439 25.3333 18.7466 25.5002 19.1665 25.5002ZM12.8332 25.5002C13.2531 25.5002 13.6559 25.3333 13.9528 25.0364C14.2497 24.7395 14.4165 24.3367 14.4165 23.9168V20.7502C14.4165 20.3302 14.2497 19.9275 13.9528 19.6306C13.6559 19.3336 13.2531 19.1668 12.8332 19.1668C12.4133 19.1668 12.0106 19.3336 11.7136 19.6306C11.4167 19.9275 11.2499 20.3302 11.2499 20.7502V23.9168C11.2499 24.3367 11.4167 24.7395 11.7136 25.0364C12.0106 25.3333 12.4133 25.5002 12.8332 25.5002ZM27.0832 6.50016H24.8982L22.159 1.03765C22.0753 0.836656 21.9511 0.65508 21.794 0.504274C21.637 0.353468 21.4505 0.236673 21.2463 0.161188C21.0421 0.0857031 20.8245 0.0531502 20.6071 0.0655639C20.3897 0.0779775 20.1772 0.135091 19.9829 0.233335C19.7886 0.331579 19.6167 0.468842 19.4778 0.636546C19.339 0.80425 19.2362 0.998791 19.1759 1.20801C19.1156 1.41723 19.0992 1.63664 19.1275 1.85251C19.1559 2.06839 19.2285 2.27609 19.3407 2.46265L21.3515 6.50016H10.6482L12.659 2.46265C12.8127 2.09359 12.8211 1.68005 12.6825 1.30506C12.5439 0.930069 12.2686 0.621392 11.9118 0.441001C11.555 0.26061 11.1432 0.22186 10.7591 0.332532C10.3749 0.443203 10.0468 0.695102 9.84071 1.03765L7.10154 6.50016H4.91654C3.79742 6.51718 2.72026 6.92884 1.87504 7.66253C1.02981 8.39623 0.470817 9.40482 0.296645 10.5104C0.122473 11.616 0.344312 12.7477 0.923036 13.7057C1.50176 14.6637 2.40019 15.3866 3.45988 15.7468L4.63154 27.5585C4.74969 28.7342 5.30184 29.8237 6.18016 30.6142C7.05847 31.4047 8.1999 31.8394 9.38154 31.8335H22.6499C23.8315 31.8394 24.9729 31.4047 25.8513 30.6142C26.7296 29.8237 27.2817 28.7342 27.3999 27.5585L28.5715 15.7468C29.6335 15.3855 30.5334 14.66 31.1117 13.6988C31.69 12.7375 31.9095 11.6027 31.7312 10.4951C31.5529 9.38761 30.9884 8.37892 30.1377 7.64771C29.287 6.91651 28.2049 6.50999 27.0832 6.50016V6.50016ZM24.2174 27.2418C24.178 27.6337 23.9939 27.9969 23.7012 28.2604C23.4084 28.5239 23.0279 28.6688 22.634 28.6668H9.36571C8.97183 28.6688 8.59135 28.5239 8.29858 28.2604C8.00581 27.9969 7.82176 27.6337 7.78237 27.2418L6.65821 16.0002H25.3415L24.2174 27.2418ZM27.0832 12.8335H4.91654C4.49662 12.8335 4.09389 12.6667 3.79696 12.3697C3.50002 12.0728 3.33321 11.6701 3.33321 11.2502C3.33321 10.8302 3.50002 10.4275 3.79696 10.1306C4.09389 9.83364 4.49662 9.66682 4.91654 9.66682H27.0832C27.5031 9.66682 27.9059 9.83364 28.2028 10.1306C28.4997 10.4275 28.6665 10.8302 28.6665 11.2502C28.6665 11.6701 28.4997 12.0728 28.2028 12.3697C27.9059 12.6667 27.5031 12.8335 27.0832 12.8335Z" fill="#9F9F9F"/>
</svg>
