<svg width="31" height="31" viewBox="0 0 31 31" fill="none" xmlns="http://www.w3.org/2000/svg">
<path d="M12.4166 17.0416H1.62492C1.21604 17.0416 0.823914 17.204 0.534796 17.4931C0.245677 17.7822 0.083252 18.1744 0.083252 18.5833V29.3749C0.083252 29.7838 0.245677 30.1759 0.534796 30.465C0.823914 30.7542 1.21604 30.9166 1.62492 30.9166H12.4166C12.8255 30.9166 13.2176 30.7542 13.5067 30.465C13.7958 30.1759 13.9583 29.7838 13.9583 29.3749V18.5833C13.9583 18.1744 13.7958 17.7822 13.5067 17.4931C13.2176 17.204 12.8255 17.0416 12.4166 17.0416ZM10.8749 27.8333H3.16659V20.1249H10.8749V27.8333ZM29.3749 0.083252H18.5833C18.1744 0.083252 17.7822 0.245677 17.4931 0.534796C17.204 0.823914 17.0416 1.21604 17.0416 1.62492V12.4166C17.0416 12.8255 17.204 13.2176 17.4931 13.5067C17.7822 13.7958 18.1744 13.9583 18.5833 13.9583H29.3749C29.7838 13.9583 30.1759 13.7958 30.465 13.5067C30.7542 13.2176 30.9166 12.8255 30.9166 12.4166V1.62492C30.9166 1.21604 30.7542 0.823914 30.465 0.534796C30.1759 0.245677 29.7838 0.083252 29.3749 0.083252V0.083252ZM27.8333 10.8749H20.1249V3.16659H27.8333V10.8749ZM29.3749 17.0416H18.5833C18.1744 17.0416 17.7822 17.204 17.4931 17.4931C17.204 17.7822 17.0416 18.1744 17.0416 18.5833V29.3749C17.0416 29.7838 17.204 30.1759 17.4931 30.465C17.7822 30.7542 18.1744 30.9166 18.5833 30.9166H29.3749C29.7838 30.9166 30.1759 30.7542 30.465 30.465C30.7542 30.1759 30.9166 29.7838 30.9166 29.3749V18.5833C30.9166 18.1744 30.7542 17.7822 30.465 17.4931C30.1759 17.204 29.7838 17.0416 29.3749 17.0416ZM27.8333 27.8333H20.1249V20.1249H27.8333V27.8333ZM12.4166 0.083252H1.62492C1.21604 0.083252 0.823914 0.245677 0.534796 0.534796C0.245677 0.823914 0.083252 1.21604 0.083252 1.62492V12.4166C0.083252 12.8255 0.245677 13.2176 0.534796 13.5067C0.823914 13.7958 1.21604 13.9583 1.62492 13.9583H12.4166C12.8255 13.9583 13.2176 13.7958 13.5067 13.5067C13.7958 13.2176 13.9583 12.8255 13.9583 12.4166V1.62492C13.9583 1.21604 13.7958 0.823914 13.5067 0.534796C13.2176 0.245677 12.8255 0.083252 12.4166 0.083252V0.083252ZM10.8749 10.8749H3.16659V3.16659H10.8749V10.8749Z" fill="#FB7D0F"/>
</svg>
