<svg width="48" height="48" viewBox="0 0 48 48" fill="none" xmlns="http://www.w3.org/2000/svg">
<path d="M31.42 25.42C33.3808 23.8773 34.812 21.7618 35.5145 19.3679C36.217 16.9739 36.1558 14.4205 35.3396 12.0629C34.5233 9.70535 32.9925 7.66079 30.9601 6.21372C28.9278 4.76664 26.4949 3.98901 24 3.98901C21.5051 3.98901 19.0722 4.76664 17.0399 6.21372C15.0075 7.66079 13.4767 9.70535 12.6604 12.0629C11.8442 14.4205 11.783 16.9739 12.4855 19.3679C13.188 21.7618 14.6192 23.8773 16.58 25.42C13.2201 26.7661 10.2886 28.9987 8.09778 31.8798C5.90699 34.761 4.53912 38.1826 4.13999 41.78C4.1111 42.0426 4.13423 42.3084 4.20804 42.5621C4.28186 42.8158 4.40493 43.0525 4.57022 43.2587C4.90403 43.675 5.38956 43.9417 5.91999 44C6.45043 44.0583 6.98231 43.9036 7.39864 43.5698C7.81497 43.236 8.08165 42.7504 8.13999 42.22C8.57916 38.3104 10.4434 34.6996 13.3764 32.0776C16.3095 29.4556 20.1058 28.0061 24.04 28.0061C27.9742 28.0061 31.7705 29.4556 34.7036 32.0776C37.6366 34.6996 39.5008 38.3104 39.94 42.22C39.9944 42.7114 40.2289 43.1653 40.5982 43.494C40.9675 43.8228 41.4456 44.003 41.94 44H42.16C42.6843 43.9397 43.1634 43.6746 43.4931 43.2625C43.8228 42.8504 43.9762 42.3247 43.92 41.8C43.519 38.1924 42.1437 34.762 39.9417 31.8764C37.7396 28.9908 34.7938 26.759 31.42 25.42ZM24 24C22.4177 24 20.871 23.5308 19.5554 22.6518C18.2398 21.7727 17.2145 20.5233 16.609 19.0615C16.0035 17.5997 15.845 15.9911 16.1537 14.4393C16.4624 12.8874 17.2243 11.462 18.3431 10.3432C19.462 9.22433 20.8874 8.46241 22.4393 8.15372C23.9911 7.84504 25.5997 8.00347 27.0615 8.60897C28.5233 9.21447 29.7727 10.2399 30.6518 11.5554C31.5308 12.871 32 14.4178 32 16C32 18.1217 31.1571 20.1566 29.6568 21.6569C28.1566 23.1572 26.1217 24 24 24Z" fill="black"/>
</svg>
