<svg width="151" height="36" viewBox="0 0 151 36" fill="none" xmlns="http://www.w3.org/2000/svg">
<path d="M0.0340909 35V0.0909081H23.5568V6.17614H7.41477V14.4943H22.3466V20.5795H7.41477V28.9148H23.625V35H0.0340909Z" fill="#FB7D0F"/>
<path d="M33.5327 35.4432C32.4077 35.4432 31.4418 35.0455 30.6349 34.25C29.8395 33.4432 29.4418 32.4773 29.4418 31.3523C29.4418 30.2386 29.8395 29.2841 30.6349 28.4886C31.4418 27.6932 32.4077 27.2955 33.5327 27.2955C34.6236 27.2955 35.5781 27.6932 36.3963 28.4886C37.2145 29.2841 37.6236 30.2386 37.6236 31.3523C37.6236 32.1023 37.4304 32.7898 37.044 33.4148C36.669 34.0284 36.1747 34.5227 35.5611 34.8977C34.9474 35.2614 34.2713 35.4432 33.5327 35.4432ZM43.7216 0.0909081H52.8239L62.4375 23.5455H62.8466L72.4602 0.0909081H81.5625V35H74.4034V12.2784H74.1136L65.0795 34.8295H60.2045L51.1705 12.1932H50.8807V35H43.7216V0.0909081ZM94.973 35.4943C93.3026 35.4943 91.8139 35.2045 90.5071 34.625C89.2003 34.0341 88.1662 33.1648 87.4048 32.017C86.6548 30.858 86.2798 29.4148 86.2798 27.6875C86.2798 26.233 86.5469 25.0114 87.081 24.0227C87.6151 23.0341 88.3423 22.2386 89.2628 21.6364C90.1832 21.0341 91.2287 20.5795 92.3991 20.2727C93.581 19.9659 94.8196 19.75 96.1151 19.625C97.6378 19.4659 98.8651 19.3182 99.7969 19.1818C100.729 19.0341 101.405 18.8182 101.825 18.5341C102.246 18.25 102.456 17.8295 102.456 17.2727V17.1705C102.456 16.0909 102.115 15.2557 101.433 14.6648C100.763 14.0739 99.8082 13.7784 98.5696 13.7784C97.2628 13.7784 96.223 14.0682 95.4503 14.6477C94.6776 15.2159 94.1662 15.9318 93.9162 16.7955L87.2003 16.25C87.5412 14.6591 88.2116 13.2841 89.2116 12.125C90.2116 10.9545 91.5014 10.0568 93.081 9.43182C94.6719 8.79545 96.5128 8.47727 98.6037 8.47727C100.058 8.47727 101.45 8.64773 102.78 8.98864C104.121 9.32955 105.308 9.85795 106.342 10.5739C107.388 11.2898 108.212 12.2102 108.814 13.3352C109.416 14.4489 109.717 15.7841 109.717 17.3409V35H102.831V31.3693H102.626C102.206 32.1875 101.643 32.9091 100.939 33.5341C100.234 34.1477 99.3878 34.6307 98.3991 34.983C97.4105 35.3239 96.2685 35.4943 94.973 35.4943ZM97.0526 30.483C98.1207 30.483 99.0639 30.2727 99.8821 29.8523C100.7 29.4205 101.342 28.8409 101.808 28.1136C102.274 27.3864 102.507 26.5625 102.507 25.642V22.8636C102.28 23.0114 101.967 23.1477 101.57 23.2727C101.183 23.3864 100.746 23.4943 100.257 23.5966C99.7685 23.6875 99.2798 23.7727 98.7912 23.8523C98.3026 23.9205 97.8594 23.983 97.4616 24.0398C96.6094 24.1648 95.8651 24.3636 95.2287 24.6364C94.5923 24.9091 94.098 25.2784 93.7457 25.7443C93.3935 26.1989 93.2173 26.767 93.2173 27.4489C93.2173 28.4375 93.5753 29.1932 94.2912 29.7159C95.0185 30.2273 95.9389 30.483 97.0526 30.483ZM115.351 35V8.81818H122.391V13.3864H122.663C123.141 11.7614 123.942 10.5341 125.067 9.70455C126.192 8.86364 127.487 8.44318 128.953 8.44318C129.317 8.44318 129.709 8.46591 130.129 8.51136C130.55 8.55682 130.919 8.61932 131.237 8.69886V15.142C130.896 15.0398 130.425 14.9489 129.822 14.8693C129.22 14.7898 128.669 14.75 128.169 14.75C127.101 14.75 126.146 14.983 125.305 15.4489C124.476 15.9034 123.817 16.5398 123.328 17.358C122.851 18.1761 122.612 19.1193 122.612 20.1875V35H115.351ZM150.23 8.81818V14.2727H134.463V8.81818H150.23ZM138.043 2.54545H145.304V26.9545C145.304 27.625 145.406 28.1477 145.611 28.5227C145.815 28.8864 146.099 29.142 146.463 29.2898C146.838 29.4375 147.27 29.5114 147.759 29.5114C148.099 29.5114 148.44 29.483 148.781 29.4261C149.122 29.358 149.384 29.3068 149.565 29.2727L150.707 34.6761C150.344 34.7898 149.832 34.9205 149.173 35.0682C148.514 35.2273 147.713 35.3239 146.77 35.358C145.02 35.4261 143.486 35.1932 142.168 34.6591C140.861 34.125 139.844 33.2955 139.116 32.1705C138.389 31.0455 138.031 29.625 138.043 27.9091V2.54545Z" fill="black"/>
</svg>
